<mxfile host="www.draw.io" modified="2020-02-25T21:35:36.554Z" agent="Mozilla/5.0 (Macintosh; Intel Mac OS X 10_13_6) AppleWebKit/605.1.15 (KHTML, like Gecko) Version/13.0.4 Safari/605.1.15" etag="4Q7yiYLVUjpqkZuh_tbq" version="12.7.6" type="github">
  <diagram id="WHALTJetp1jljA18ekBK" name="第 1 页">
    <mxGraphModel dx="1426" dy="842" grid="1" gridSize="10" guides="1" tooltips="1" connect="1" arrows="1" fold="1" page="1" pageScale="1" pageWidth="850" pageHeight="1100" background="#ffffff" math="0" shadow="0">
      <root>
        <mxCell id="0" />
        <mxCell id="1" parent="0" />
        <mxCell id="HX2W6YqDFa2ISBYgyvUh-50" value="" style="rounded=0;whiteSpace=wrap;html=1;" parent="1" vertex="1">
          <mxGeometry x="320" y="350" width="1070" height="460" as="geometry" />
        </mxCell>
        <mxCell id="WOuQzC1wbdeDhDOzNf2w-1" value="student" style="shape=umlActor;verticalLabelPosition=bottom;labelBackgroundColor=#ffffff;verticalAlign=top;html=1;" parent="1" vertex="1">
          <mxGeometry x="50" y="271.25" width="30" height="60" as="geometry" />
        </mxCell>
        <mxCell id="HX2W6YqDFa2ISBYgyvUh-4" value=":makeappointment Controller" style="rounded=0;whiteSpace=wrap;html=1;" parent="1" vertex="1">
          <mxGeometry x="425" y="230" width="160" height="30" as="geometry" />
        </mxCell>
        <mxCell id="HX2W6YqDFa2ISBYgyvUh-6" value="l:Loan" style="rounded=0;whiteSpace=wrap;html=1;" parent="1" vertex="1">
          <mxGeometry x="960" y="218.75" width="90" height="30" as="geometry" />
        </mxCell>
        <mxCell id="HX2W6YqDFa2ISBYgyvUh-10" value="msg;" style="rounded=0;whiteSpace=wrap;html=1;" parent="1" vertex="1">
          <mxGeometry x="1255" y="220" width="80" height="30" as="geometry" />
        </mxCell>
        <mxCell id="HX2W6YqDFa2ISBYgyvUh-11" value="" style="rounded=0;whiteSpace=wrap;html=1;" parent="1" vertex="1">
          <mxGeometry x="190" y="230" width="140" height="30" as="geometry" />
        </mxCell>
        <mxCell id="HX2W6YqDFa2ISBYgyvUh-13" value="" style="endArrow=none;html=1;rounded=0;dashed=1;dashPattern=1 2;" parent="1" edge="1">
          <mxGeometry relative="1" as="geometry">
            <mxPoint x="65" y="350" as="sourcePoint" />
            <mxPoint x="65" y="890" as="targetPoint" />
          </mxGeometry>
        </mxCell>
        <mxCell id="HX2W6YqDFa2ISBYgyvUh-14" value="" style="resizable=0;html=1;align=right;verticalAlign=bottom;" parent="HX2W6YqDFa2ISBYgyvUh-13" connectable="0" vertex="1">
          <mxGeometry x="1" relative="1" as="geometry" />
        </mxCell>
        <mxCell id="HX2W6YqDFa2ISBYgyvUh-15" value=":makeappointmentGUI" style="text;html=1;strokeColor=none;fillColor=none;align=center;verticalAlign=middle;whiteSpace=wrap;rounded=0;" parent="1" vertex="1">
          <mxGeometry x="226.25" y="218.75" width="67.5" height="52.5" as="geometry" />
        </mxCell>
        <mxCell id="HX2W6YqDFa2ISBYgyvUh-17" value="" style="endArrow=none;html=1;" parent="1" edge="1">
          <mxGeometry width="50" height="50" relative="1" as="geometry">
            <mxPoint x="200" y="253" as="sourcePoint" />
            <mxPoint x="320" y="253" as="targetPoint" />
          </mxGeometry>
        </mxCell>
        <mxCell id="HX2W6YqDFa2ISBYgyvUh-18" value="" style="endArrow=none;html=1;entryX=1;entryY=0.75;entryDx=0;entryDy=0;exitX=0;exitY=0.75;exitDx=0;exitDy=0;" parent="1" source="HX2W6YqDFa2ISBYgyvUh-4" target="HX2W6YqDFa2ISBYgyvUh-4" edge="1">
          <mxGeometry width="50" height="50" relative="1" as="geometry">
            <mxPoint x="420" y="340" as="sourcePoint" />
            <mxPoint x="470" y="290" as="targetPoint" />
          </mxGeometry>
        </mxCell>
        <mxCell id="HX2W6YqDFa2ISBYgyvUh-19" value="" style="endArrow=none;html=1;" parent="1" source="HX2W6YqDFa2ISBYgyvUh-5" edge="1">
          <mxGeometry width="50" height="50" relative="1" as="geometry">
            <mxPoint x="750" y="244.5" as="sourcePoint" />
            <mxPoint x="810" y="244.5" as="targetPoint" />
            <Array as="points">
              <mxPoint x="780" y="245" />
            </Array>
          </mxGeometry>
        </mxCell>
        <mxCell id="HX2W6YqDFa2ISBYgyvUh-20" value="" style="endArrow=none;html=1;" parent="1" edge="1">
          <mxGeometry width="50" height="50" relative="1" as="geometry">
            <mxPoint x="980" y="244.5" as="sourcePoint" />
            <mxPoint x="1030" y="244.5" as="targetPoint" />
            <Array as="points">
              <mxPoint x="1020" y="244.5" />
            </Array>
          </mxGeometry>
        </mxCell>
        <mxCell id="HX2W6YqDFa2ISBYgyvUh-21" value="" style="endArrow=none;html=1;" parent="1" edge="1">
          <mxGeometry width="50" height="50" relative="1" as="geometry">
            <mxPoint x="1275" y="244.5" as="sourcePoint" />
            <mxPoint x="1315" y="244.5" as="targetPoint" />
          </mxGeometry>
        </mxCell>
        <mxCell id="HX2W6YqDFa2ISBYgyvUh-22" value="" style="endArrow=none;html=1;" parent="1" source="HX2W6YqDFa2ISBYgyvUh-9" edge="1">
          <mxGeometry width="50" height="50" relative="1" as="geometry">
            <mxPoint x="1170" y="244.5" as="sourcePoint" />
            <mxPoint x="1230" y="244.5" as="targetPoint" />
          </mxGeometry>
        </mxCell>
        <mxCell id="HX2W6YqDFa2ISBYgyvUh-23" value="advisor &#39;name and other data" style="html=1;verticalAlign=bottom;endArrow=open;dashed=1;endSize=8;exitX=1;exitY=0.3333333333333333;exitDx=0;exitDy=0;exitPerimeter=0;" parent="1" source="WOuQzC1wbdeDhDOzNf2w-1" edge="1">
          <mxGeometry relative="1" as="geometry">
            <mxPoint x="160" y="330" as="sourcePoint" />
            <mxPoint x="250" y="291" as="targetPoint" />
            <Array as="points">
              <mxPoint x="160" y="291" />
            </Array>
          </mxGeometry>
        </mxCell>
        <mxCell id="HX2W6YqDFa2ISBYgyvUh-9" value="T:time slot" style="rounded=0;whiteSpace=wrap;html=1;" parent="1" vertex="1">
          <mxGeometry x="1150" y="220" width="100" height="30" as="geometry" />
        </mxCell>
        <mxCell id="HX2W6YqDFa2ISBYgyvUh-25" value="" style="endArrow=none;html=1;rounded=0;" parent="1" edge="1">
          <mxGeometry relative="1" as="geometry">
            <mxPoint x="1170" y="243" as="sourcePoint" />
            <mxPoint x="1230" y="243" as="targetPoint" />
          </mxGeometry>
        </mxCell>
        <mxCell id="HX2W6YqDFa2ISBYgyvUh-5" value=":DBMgr" style="rounded=0;whiteSpace=wrap;html=1;" parent="1" vertex="1">
          <mxGeometry x="720" y="220" width="100" height="30" as="geometry" />
        </mxCell>
        <mxCell id="HX2W6YqDFa2ISBYgyvUh-27" value="" style="endArrow=none;html=1;rounded=0;" parent="1" edge="1">
          <mxGeometry relative="1" as="geometry">
            <mxPoint x="740" y="243" as="sourcePoint" />
            <mxPoint x="800" y="243" as="targetPoint" />
          </mxGeometry>
        </mxCell>
        <mxCell id="HX2W6YqDFa2ISBYgyvUh-28" value="" style="endArrow=none;html=1;rounded=0;dashed=1;dashPattern=1 2;" parent="1" edge="1">
          <mxGeometry relative="1" as="geometry">
            <mxPoint x="260" y="260" as="sourcePoint" />
            <mxPoint x="260" y="350" as="targetPoint" />
          </mxGeometry>
        </mxCell>
        <mxCell id="HX2W6YqDFa2ISBYgyvUh-31" value="" style="rounded=0;whiteSpace=wrap;html=1;" parent="1" vertex="1">
          <mxGeometry x="255" y="290" width="10" height="590" as="geometry" />
        </mxCell>
        <mxCell id="HX2W6YqDFa2ISBYgyvUh-34" value="" style="endArrow=block;endFill=1;html=1;align=left;verticalAlign=top;exitX=0.9;exitY=0.028;exitDx=0;exitDy=0;exitPerimeter=0;" parent="1" source="HX2W6YqDFa2ISBYgyvUh-31" edge="1">
          <mxGeometry x="-1" relative="1" as="geometry">
            <mxPoint x="290" y="360" as="sourcePoint" />
            <mxPoint x="486" y="305" as="targetPoint" />
          </mxGeometry>
        </mxCell>
        <mxCell id="HX2W6YqDFa2ISBYgyvUh-36" value="" style="endArrow=none;html=1;rounded=0;dashed=1;dashPattern=1 2;" parent="1" edge="1">
          <mxGeometry relative="1" as="geometry">
            <mxPoint x="494.5" y="300" as="sourcePoint" />
            <mxPoint x="494.5" y="260" as="targetPoint" />
          </mxGeometry>
        </mxCell>
        <mxCell id="HX2W6YqDFa2ISBYgyvUh-40" value="search time slot with &amp;nbsp;advisor&#39;s name" style="text;html=1;strokeColor=none;fillColor=none;align=center;verticalAlign=middle;whiteSpace=wrap;rounded=0;" parent="1" vertex="1">
          <mxGeometry x="270" y="290" width="200" height="20" as="geometry" />
        </mxCell>
        <mxCell id="HX2W6YqDFa2ISBYgyvUh-41" value="" style="endArrow=block;endFill=1;html=1;align=left;verticalAlign=top;" parent="1" edge="1">
          <mxGeometry x="-1" relative="1" as="geometry">
            <mxPoint x="500" y="321.25" as="sourcePoint" />
            <mxPoint x="1290" y="320" as="targetPoint" />
          </mxGeometry>
        </mxCell>
        <mxCell id="HX2W6YqDFa2ISBYgyvUh-43" value="" style="endArrow=none;html=1;rounded=0;dashed=1;dashPattern=1 2;exitX=0.5;exitY=1;exitDx=0;exitDy=0;entryX=0.5;entryY=0;entryDx=0;entryDy=0;" parent="1" source="HX2W6YqDFa2ISBYgyvUh-10" target="HX2W6YqDFa2ISBYgyvUh-45" edge="1">
          <mxGeometry relative="1" as="geometry">
            <mxPoint x="1540" y="330" as="sourcePoint" />
            <mxPoint x="1380" y="290" as="targetPoint" />
          </mxGeometry>
        </mxCell>
        <mxCell id="HX2W6YqDFa2ISBYgyvUh-45" value="" style="rounded=0;whiteSpace=wrap;html=1;" parent="1" vertex="1">
          <mxGeometry x="1290" y="300" width="10" height="30" as="geometry" />
        </mxCell>
        <mxCell id="HX2W6YqDFa2ISBYgyvUh-46" style="edgeStyle=none;rounded=0;orthogonalLoop=1;jettySize=auto;html=1;entryX=0;entryY=0.4;entryDx=0;entryDy=0;entryPerimeter=0;" parent="1" source="HX2W6YqDFa2ISBYgyvUh-45" target="HX2W6YqDFa2ISBYgyvUh-45" edge="1">
          <mxGeometry relative="1" as="geometry" />
        </mxCell>
        <mxCell id="HX2W6YqDFa2ISBYgyvUh-47" value="creat&amp;nbsp;" style="text;html=1;align=center;verticalAlign=middle;resizable=0;points=[];autosize=1;" parent="1" vertex="1">
          <mxGeometry x="510" y="300" width="50" height="20" as="geometry" />
        </mxCell>
        <mxCell id="HX2W6YqDFa2ISBYgyvUh-49" value="" style="verticalLabelPosition=bottom;verticalAlign=top;html=1;shape=card;whiteSpace=wrap;size=20;arcSize=12;direction=west;" parent="1" vertex="1">
          <mxGeometry x="320" y="350" width="90" height="50" as="geometry" />
        </mxCell>
        <mxCell id="HX2W6YqDFa2ISBYgyvUh-51" value="loop" style="text;html=1;strokeColor=none;fillColor=none;align=center;verticalAlign=middle;whiteSpace=wrap;rounded=0;" parent="1" vertex="1">
          <mxGeometry x="330" y="360" width="45" height="30" as="geometry" />
        </mxCell>
        <mxCell id="HX2W6YqDFa2ISBYgyvUh-52" value="" style="endArrow=none;html=1;rounded=0;dashed=1;dashPattern=1 2;exitX=0.5;exitY=1;exitDx=0;exitDy=0;" parent="1" source="HX2W6YqDFa2ISBYgyvUh-5" edge="1">
          <mxGeometry relative="1" as="geometry">
            <mxPoint x="760" y="280" as="sourcePoint" />
            <mxPoint x="770" y="380" as="targetPoint" />
          </mxGeometry>
        </mxCell>
        <mxCell id="HX2W6YqDFa2ISBYgyvUh-54" value="" style="rounded=0;whiteSpace=wrap;html=1;" parent="1" vertex="1">
          <mxGeometry x="765" y="380" width="10" height="50" as="geometry" />
        </mxCell>
        <mxCell id="HX2W6YqDFa2ISBYgyvUh-55" value="" style="endArrow=block;endFill=1;html=1;align=left;verticalAlign=top;exitX=1.1;exitY=0.163;exitDx=0;exitDy=0;exitPerimeter=0;entryX=0.1;entryY=0.133;entryDx=0;entryDy=0;entryPerimeter=0;" parent="1" source="HX2W6YqDFa2ISBYgyvUh-38" target="HX2W6YqDFa2ISBYgyvUh-54" edge="1">
          <mxGeometry x="-1" relative="1" as="geometry">
            <mxPoint x="500" y="380" as="sourcePoint" />
            <mxPoint x="750" y="393" as="targetPoint" />
          </mxGeometry>
        </mxCell>
        <mxCell id="HX2W6YqDFa2ISBYgyvUh-58" value="get time slot with advisor&#39;s name&amp;nbsp;" style="text;html=1;strokeColor=none;fillColor=none;align=center;verticalAlign=middle;whiteSpace=wrap;rounded=0;" parent="1" vertex="1">
          <mxGeometry x="520" y="370" width="220" height="20" as="geometry" />
        </mxCell>
        <mxCell id="HX2W6YqDFa2ISBYgyvUh-60" value="return time slot T" style="html=1;verticalAlign=bottom;endArrow=open;dashed=1;endSize=8;" parent="1" edge="1">
          <mxGeometry relative="1" as="geometry">
            <mxPoint x="765" y="421" as="sourcePoint" />
            <mxPoint x="502" y="421" as="targetPoint" />
          </mxGeometry>
        </mxCell>
        <mxCell id="HX2W6YqDFa2ISBYgyvUh-62" value="[advisor&#39;s name]" style="text;html=1;strokeColor=none;fillColor=none;align=center;verticalAlign=middle;whiteSpace=wrap;rounded=0;" parent="1" vertex="1">
          <mxGeometry x="320" y="400" width="90" height="20" as="geometry" />
        </mxCell>
        <mxCell id="HX2W6YqDFa2ISBYgyvUh-63" value="" style="rounded=0;whiteSpace=wrap;html=1;" parent="1" vertex="1">
          <mxGeometry x="390" y="440" width="980" height="350" as="geometry" />
        </mxCell>
        <mxCell id="HX2W6YqDFa2ISBYgyvUh-64" value="" style="verticalLabelPosition=bottom;verticalAlign=top;html=1;shape=card;whiteSpace=wrap;size=20;arcSize=12;direction=west;" parent="1" vertex="1">
          <mxGeometry x="390" y="440" width="80" height="50" as="geometry" />
        </mxCell>
        <mxCell id="HX2W6YqDFa2ISBYgyvUh-65" value="alt" style="text;html=1;strokeColor=none;fillColor=none;align=center;verticalAlign=middle;whiteSpace=wrap;rounded=0;" parent="1" vertex="1">
          <mxGeometry x="405" y="455" width="40" height="20" as="geometry" />
        </mxCell>
        <mxCell id="HX2W6YqDFa2ISBYgyvUh-66" value="" style="endArrow=none;html=1;rounded=0;dashed=1;dashPattern=1 2;entryX=0.57;entryY=1.1;entryDx=0;entryDy=0;entryPerimeter=0;" parent="1" source="HX2W6YqDFa2ISBYgyvUh-68" target="HX2W6YqDFa2ISBYgyvUh-9" edge="1">
          <mxGeometry relative="1" as="geometry">
            <mxPoint x="1207" y="900" as="sourcePoint" />
            <mxPoint x="1290" y="280" as="targetPoint" />
          </mxGeometry>
        </mxCell>
        <mxCell id="HX2W6YqDFa2ISBYgyvUh-68" value="" style="rounded=0;whiteSpace=wrap;html=1;" parent="1" vertex="1">
          <mxGeometry x="1200" y="447.5" width="15" height="52.5" as="geometry" />
        </mxCell>
        <mxCell id="HX2W6YqDFa2ISBYgyvUh-70" value="[T!=null]" style="text;html=1;strokeColor=none;fillColor=none;align=center;verticalAlign=middle;whiteSpace=wrap;rounded=0;" parent="1" vertex="1">
          <mxGeometry x="510" y="440" width="40" height="20" as="geometry" />
        </mxCell>
        <mxCell id="HX2W6YqDFa2ISBYgyvUh-71" value="" style="endArrow=block;endFill=1;html=1;align=left;verticalAlign=top;entryX=0;entryY=0.5;entryDx=0;entryDy=0;exitX=0.8;exitY=0.32;exitDx=0;exitDy=0;exitPerimeter=0;" parent="1" source="HX2W6YqDFa2ISBYgyvUh-38" target="HX2W6YqDFa2ISBYgyvUh-68" edge="1">
          <mxGeometry x="-1" relative="1" as="geometry">
            <mxPoint x="500" y="470" as="sourcePoint" />
            <mxPoint x="660" y="470" as="targetPoint" />
          </mxGeometry>
        </mxCell>
        <mxCell id="HX2W6YqDFa2ISBYgyvUh-73" value="check it if available?" style="text;html=1;strokeColor=none;fillColor=none;align=center;verticalAlign=middle;whiteSpace=wrap;rounded=0;" parent="1" vertex="1">
          <mxGeometry x="580" y="455" width="160" height="20" as="geometry" />
        </mxCell>
        <mxCell id="HX2W6YqDFa2ISBYgyvUh-74" value="&amp;nbsp;time slot T is available [a]" style="html=1;verticalAlign=bottom;endArrow=open;dashed=1;endSize=8;entryX=1;entryY=0.363;entryDx=0;entryDy=0;entryPerimeter=0;exitX=0.067;exitY=0.886;exitDx=0;exitDy=0;exitPerimeter=0;" parent="1" source="HX2W6YqDFa2ISBYgyvUh-68" target="HX2W6YqDFa2ISBYgyvUh-38" edge="1">
          <mxGeometry relative="1" as="geometry">
            <mxPoint x="783" y="480" as="sourcePoint" />
            <mxPoint x="520" y="480" as="targetPoint" />
          </mxGeometry>
        </mxCell>
        <mxCell id="HX2W6YqDFa2ISBYgyvUh-75" value="" style="rounded=0;whiteSpace=wrap;html=1;" parent="1" vertex="1">
          <mxGeometry x="405" y="510" width="945" height="240" as="geometry" />
        </mxCell>
        <mxCell id="HX2W6YqDFa2ISBYgyvUh-38" value="" style="rounded=0;whiteSpace=wrap;html=1;" parent="1" vertex="1">
          <mxGeometry x="490" y="300" width="10" height="540" as="geometry" />
        </mxCell>
        <mxCell id="HX2W6YqDFa2ISBYgyvUh-69" value="" style="endArrow=none;html=1;rounded=0;dashed=1;dashPattern=1 2;exitX=0.6;exitY=0;exitDx=0;exitDy=0;exitPerimeter=0;" parent="1" source="HX2W6YqDFa2ISBYgyvUh-96" edge="1">
          <mxGeometry relative="1" as="geometry">
            <mxPoint x="1207" y="900" as="sourcePoint" />
            <mxPoint x="1209" y="505" as="targetPoint" />
          </mxGeometry>
        </mxCell>
        <mxCell id="HX2W6YqDFa2ISBYgyvUh-78" style="edgeStyle=none;rounded=0;orthogonalLoop=1;jettySize=auto;html=1;exitX=0;exitY=0;exitDx=10;exitDy=10;exitPerimeter=0;entryX=0.75;entryY=1;entryDx=0;entryDy=0;" parent="1" source="HX2W6YqDFa2ISBYgyvUh-76" target="HX2W6YqDFa2ISBYgyvUh-77" edge="1">
          <mxGeometry relative="1" as="geometry" />
        </mxCell>
        <mxCell id="HX2W6YqDFa2ISBYgyvUh-76" value="" style="verticalLabelPosition=bottom;verticalAlign=top;html=1;shape=card;whiteSpace=wrap;size=20;arcSize=12;direction=west;" parent="1" vertex="1">
          <mxGeometry x="420" y="520" width="65" height="40" as="geometry" />
        </mxCell>
        <mxCell id="HX2W6YqDFa2ISBYgyvUh-77" value="alt" style="text;html=1;strokeColor=none;fillColor=none;align=center;verticalAlign=middle;whiteSpace=wrap;rounded=0;" parent="1" vertex="1">
          <mxGeometry x="425" y="530" width="40" height="20" as="geometry" />
        </mxCell>
        <mxCell id="HX2W6YqDFa2ISBYgyvUh-79" value="" style="endArrow=none;html=1;rounded=0;dashed=1;dashPattern=1 2;" parent="1" source="HX2W6YqDFa2ISBYgyvUh-109" edge="1">
          <mxGeometry relative="1" as="geometry">
            <mxPoint x="770" y="430" as="sourcePoint" />
            <mxPoint x="770" y="850" as="targetPoint" />
          </mxGeometry>
        </mxCell>
        <mxCell id="HX2W6YqDFa2ISBYgyvUh-81" value="" style="endArrow=block;endFill=1;html=1;align=left;verticalAlign=top;exitX=0.9;exitY=0.48;exitDx=0;exitDy=0;exitPerimeter=0;entryX=0;entryY=0.5;entryDx=0;entryDy=0;" parent="1" source="HX2W6YqDFa2ISBYgyvUh-38" target="HX2W6YqDFa2ISBYgyvUh-85" edge="1">
          <mxGeometry x="-1" relative="1" as="geometry">
            <mxPoint x="840" y="559" as="sourcePoint" />
            <mxPoint x="980" y="559" as="targetPoint" />
          </mxGeometry>
        </mxCell>
        <mxCell id="HX2W6YqDFa2ISBYgyvUh-83" value="" style="endArrow=none;html=1;rounded=0;dashed=1;dashPattern=1 2;" parent="1" source="HX2W6YqDFa2ISBYgyvUh-85" edge="1">
          <mxGeometry relative="1" as="geometry">
            <mxPoint x="1000" y="250" as="sourcePoint" />
            <mxPoint x="1000" y="840" as="targetPoint" />
          </mxGeometry>
        </mxCell>
        <mxCell id="HX2W6YqDFa2ISBYgyvUh-85" value="" style="rounded=0;whiteSpace=wrap;html=1;" parent="1" vertex="1">
          <mxGeometry x="990" y="530" width="20" height="60" as="geometry" />
        </mxCell>
        <mxCell id="HX2W6YqDFa2ISBYgyvUh-86" value="" style="endArrow=none;html=1;rounded=0;dashed=1;dashPattern=1 2;" parent="1" target="HX2W6YqDFa2ISBYgyvUh-85" edge="1">
          <mxGeometry relative="1" as="geometry">
            <mxPoint x="1000" y="250" as="sourcePoint" />
            <mxPoint x="1000" y="840" as="targetPoint" />
          </mxGeometry>
        </mxCell>
        <mxCell id="HX2W6YqDFa2ISBYgyvUh-87" value="[a]" style="text;html=1;strokeColor=none;fillColor=none;align=center;verticalAlign=middle;whiteSpace=wrap;rounded=0;" parent="1" vertex="1">
          <mxGeometry x="500" y="520" width="40" height="20" as="geometry" />
        </mxCell>
        <mxCell id="HX2W6YqDFa2ISBYgyvUh-88" value="use student &amp;nbsp;S and time slot T create a &amp;nbsp;loan object" style="text;html=1;strokeColor=none;fillColor=none;align=center;verticalAlign=middle;whiteSpace=wrap;rounded=0;" parent="1" vertex="1">
          <mxGeometry x="520" y="540" width="310" height="20" as="geometry" />
        </mxCell>
        <mxCell id="HX2W6YqDFa2ISBYgyvUh-89" value="" style="endArrow=block;endFill=1;html=1;align=left;verticalAlign=top;entryX=0;entryY=0.5;entryDx=0;entryDy=0;" parent="1" target="HX2W6YqDFa2ISBYgyvUh-91" edge="1">
          <mxGeometry x="-0.6925" y="-26" relative="1" as="geometry">
            <mxPoint x="501" y="598" as="sourcePoint" />
            <mxPoint x="660" y="579.5" as="targetPoint" />
            <mxPoint as="offset" />
          </mxGeometry>
        </mxCell>
        <mxCell id="HX2W6YqDFa2ISBYgyvUh-91" value="" style="rounded=0;whiteSpace=wrap;html=1;" parent="1" vertex="1">
          <mxGeometry x="760" y="570" width="20" height="55" as="geometry" />
        </mxCell>
        <mxCell id="HX2W6YqDFa2ISBYgyvUh-92" value="" style="endArrow=none;html=1;rounded=0;dashed=1;dashPattern=1 2;" parent="1" target="HX2W6YqDFa2ISBYgyvUh-91" edge="1">
          <mxGeometry relative="1" as="geometry">
            <mxPoint x="770" y="430" as="sourcePoint" />
            <mxPoint x="770" y="850" as="targetPoint" />
          </mxGeometry>
        </mxCell>
        <mxCell id="HX2W6YqDFa2ISBYgyvUh-93" value="save loan&amp;nbsp;" style="text;html=1;strokeColor=none;fillColor=none;align=center;verticalAlign=middle;whiteSpace=wrap;rounded=0;" parent="1" vertex="1">
          <mxGeometry x="510" y="580" width="110" height="20" as="geometry" />
        </mxCell>
        <mxCell id="HX2W6YqDFa2ISBYgyvUh-94" value="" style="endArrow=block;endFill=1;html=1;edgeStyle=orthogonalEdgeStyle;align=left;verticalAlign=top;entryX=0;entryY=0.5;entryDx=0;entryDy=0;" parent="1" target="HX2W6YqDFa2ISBYgyvUh-96" edge="1">
          <mxGeometry x="-1" relative="1" as="geometry">
            <mxPoint x="500" y="630" as="sourcePoint" />
            <mxPoint x="1150" y="630" as="targetPoint" />
          </mxGeometry>
        </mxCell>
        <mxCell id="HX2W6YqDFa2ISBYgyvUh-96" value="" style="rounded=0;whiteSpace=wrap;html=1;" parent="1" vertex="1">
          <mxGeometry x="1197.5" y="610" width="20" height="40" as="geometry" />
        </mxCell>
        <mxCell id="HX2W6YqDFa2ISBYgyvUh-98" value="" style="endArrow=none;html=1;rounded=0;dashed=1;dashPattern=1 2;entryX=0.62;entryY=1.017;entryDx=0;entryDy=0;entryPerimeter=0;" parent="1" target="HX2W6YqDFa2ISBYgyvUh-96" edge="1">
          <mxGeometry relative="1" as="geometry">
            <mxPoint x="1220" y="900" as="sourcePoint" />
            <mxPoint x="1209" y="505" as="targetPoint" />
          </mxGeometry>
        </mxCell>
        <mxCell id="HX2W6YqDFa2ISBYgyvUh-99" value="set &amp;nbsp;time slot is unavailable" style="text;html=1;strokeColor=none;fillColor=none;align=center;verticalAlign=middle;whiteSpace=wrap;rounded=0;" parent="1" vertex="1">
          <mxGeometry x="520" y="610" width="200" height="20" as="geometry" />
        </mxCell>
        <mxCell id="HX2W6YqDFa2ISBYgyvUh-100" value="" style="endArrow=none;html=1;rounded=0;dashed=1;dashPattern=1 2;" parent="1" source="HX2W6YqDFa2ISBYgyvUh-133" edge="1">
          <mxGeometry relative="1" as="geometry">
            <mxPoint x="1290" y="332.5" as="sourcePoint" />
            <mxPoint x="1300" y="880" as="targetPoint" />
          </mxGeometry>
        </mxCell>
        <mxCell id="HX2W6YqDFa2ISBYgyvUh-107" value="" style="endArrow=block;endFill=1;html=1;align=left;verticalAlign=top;entryX=0;entryY=0.25;entryDx=0;entryDy=0;" parent="1" target="HX2W6YqDFa2ISBYgyvUh-109" edge="1">
          <mxGeometry x="-1" relative="1" as="geometry">
            <mxPoint x="502" y="668" as="sourcePoint" />
            <mxPoint x="660" y="660" as="targetPoint" />
          </mxGeometry>
        </mxCell>
        <mxCell id="HX2W6YqDFa2ISBYgyvUh-108" value="save time slot T" style="resizable=0;html=1;align=left;verticalAlign=bottom;labelBackgroundColor=#ffffff;fontSize=10;" parent="HX2W6YqDFa2ISBYgyvUh-107" connectable="0" vertex="1">
          <mxGeometry x="-1" relative="1" as="geometry" />
        </mxCell>
        <mxCell id="HX2W6YqDFa2ISBYgyvUh-109" value="" style="rounded=0;whiteSpace=wrap;html=1;" parent="1" vertex="1">
          <mxGeometry x="760" y="660" width="20" height="30" as="geometry" />
        </mxCell>
        <mxCell id="HX2W6YqDFa2ISBYgyvUh-110" value="" style="endArrow=none;html=1;rounded=0;dashed=1;dashPattern=1 2;" parent="1" source="HX2W6YqDFa2ISBYgyvUh-91" target="HX2W6YqDFa2ISBYgyvUh-109" edge="1">
          <mxGeometry relative="1" as="geometry">
            <mxPoint x="770" y="625" as="sourcePoint" />
            <mxPoint x="770" y="850" as="targetPoint" />
          </mxGeometry>
        </mxCell>
        <mxCell id="HX2W6YqDFa2ISBYgyvUh-111" value="" style="endArrow=block;endFill=1;html=1;align=left;verticalAlign=top;entryX=0;entryY=0.5;entryDx=0;entryDy=0;exitX=1.1;exitY=0.739;exitDx=0;exitDy=0;exitPerimeter=0;" parent="1" source="HX2W6YqDFa2ISBYgyvUh-38" target="HX2W6YqDFa2ISBYgyvUh-113" edge="1">
          <mxGeometry x="-0.9521" y="-21" relative="1" as="geometry">
            <mxPoint x="500" y="700" as="sourcePoint" />
            <mxPoint x="1280" y="700" as="targetPoint" />
            <mxPoint as="offset" />
          </mxGeometry>
        </mxCell>
        <mxCell id="HX2W6YqDFa2ISBYgyvUh-113" value="" style="rounded=0;whiteSpace=wrap;html=1;" parent="1" vertex="1">
          <mxGeometry x="1290" y="680" width="15" height="30" as="geometry" />
        </mxCell>
        <mxCell id="HX2W6YqDFa2ISBYgyvUh-116" value="" style="endArrow=none;html=1;rounded=0;dashed=1;dashPattern=1 2;" parent="1" target="HX2W6YqDFa2ISBYgyvUh-113" edge="1">
          <mxGeometry relative="1" as="geometry">
            <mxPoint x="1290" y="332.5" as="sourcePoint" />
            <mxPoint x="1300" y="880" as="targetPoint" />
          </mxGeometry>
        </mxCell>
        <mxCell id="HX2W6YqDFa2ISBYgyvUh-118" value="add &quot;book successful&quot;" style="text;html=1;strokeColor=none;fillColor=none;align=center;verticalAlign=middle;whiteSpace=wrap;rounded=0;" parent="1" vertex="1">
          <mxGeometry x="545" y="685" width="145" height="20" as="geometry" />
        </mxCell>
        <mxCell id="HX2W6YqDFa2ISBYgyvUh-119" value="" style="endArrow=none;html=1;rounded=0;dashed=1;dashPattern=1 2;entryX=1;entryY=0.842;entryDx=0;entryDy=0;entryPerimeter=0;" parent="1" target="HX2W6YqDFa2ISBYgyvUh-75" edge="1">
          <mxGeometry relative="1" as="geometry">
            <mxPoint x="410" y="710" as="sourcePoint" />
            <mxPoint x="570" y="710" as="targetPoint" />
          </mxGeometry>
        </mxCell>
        <mxCell id="HX2W6YqDFa2ISBYgyvUh-121" value="[else]" style="text;html=1;strokeColor=none;fillColor=none;align=center;verticalAlign=middle;whiteSpace=wrap;rounded=0;" parent="1" vertex="1">
          <mxGeometry x="425" y="720" width="40" height="20" as="geometry" />
        </mxCell>
        <mxCell id="HX2W6YqDFa2ISBYgyvUh-122" value="" style="rounded=0;whiteSpace=wrap;html=1;" parent="1" vertex="1">
          <mxGeometry x="1287.5" y="720" width="20" height="20" as="geometry" />
        </mxCell>
        <mxCell id="HX2W6YqDFa2ISBYgyvUh-123" value="" style="endArrow=none;html=1;rounded=0;dashed=1;dashPattern=1 2;" parent="1" source="HX2W6YqDFa2ISBYgyvUh-113" target="HX2W6YqDFa2ISBYgyvUh-122" edge="1">
          <mxGeometry relative="1" as="geometry">
            <mxPoint x="1297.7027027027025" y="710" as="sourcePoint" />
            <mxPoint x="1300" y="880" as="targetPoint" />
          </mxGeometry>
        </mxCell>
        <mxCell id="HX2W6YqDFa2ISBYgyvUh-124" value="1" style="resizable=0;html=1;align=right;verticalAlign=bottom;" parent="HX2W6YqDFa2ISBYgyvUh-123" connectable="0" vertex="1">
          <mxGeometry x="1" relative="1" as="geometry" />
        </mxCell>
        <mxCell id="HX2W6YqDFa2ISBYgyvUh-125" value="" style="endArrow=block;endFill=1;html=1;edgeStyle=orthogonalEdgeStyle;align=left;verticalAlign=top;entryX=0;entryY=0.5;entryDx=0;entryDy=0;" parent="1" target="HX2W6YqDFa2ISBYgyvUh-122" edge="1">
          <mxGeometry x="-1" relative="1" as="geometry">
            <mxPoint x="500" y="730" as="sourcePoint" />
            <mxPoint x="660" y="730" as="targetPoint" />
          </mxGeometry>
        </mxCell>
        <mxCell id="HX2W6YqDFa2ISBYgyvUh-127" value="add&quot;time slot not available&quot;" style="text;html=1;strokeColor=none;fillColor=none;align=center;verticalAlign=middle;whiteSpace=wrap;rounded=0;" parent="1" vertex="1">
          <mxGeometry x="520" y="710" width="160" height="30" as="geometry" />
        </mxCell>
        <mxCell id="HX2W6YqDFa2ISBYgyvUh-128" value="" style="endArrow=none;html=1;rounded=0;dashed=1;dashPattern=1 2;entryX=1;entryY=0.911;entryDx=0;entryDy=0;entryPerimeter=0;" parent="1" target="HX2W6YqDFa2ISBYgyvUh-63" edge="1">
          <mxGeometry relative="1" as="geometry">
            <mxPoint x="390" y="760" as="sourcePoint" />
            <mxPoint x="550" y="760" as="targetPoint" />
          </mxGeometry>
        </mxCell>
        <mxCell id="HX2W6YqDFa2ISBYgyvUh-130" value="[else]" style="text;html=1;strokeColor=none;fillColor=none;align=center;verticalAlign=middle;whiteSpace=wrap;rounded=0;" parent="1" vertex="1">
          <mxGeometry x="425" y="770" width="40" height="20" as="geometry" />
        </mxCell>
        <mxCell id="HX2W6YqDFa2ISBYgyvUh-131" value="" style="endArrow=block;endFill=1;html=1;edgeStyle=orthogonalEdgeStyle;align=left;verticalAlign=top;exitX=1;exitY=0.889;exitDx=0;exitDy=0;exitPerimeter=0;" parent="1" source="HX2W6YqDFa2ISBYgyvUh-38" edge="1">
          <mxGeometry x="-1" relative="1" as="geometry">
            <mxPoint x="510" y="770" as="sourcePoint" />
            <mxPoint x="1290" y="780" as="targetPoint" />
          </mxGeometry>
        </mxCell>
        <mxCell id="HX2W6YqDFa2ISBYgyvUh-143" value="" style="edgeStyle=none;rounded=0;orthogonalLoop=1;jettySize=auto;html=1;" parent="1" source="HX2W6YqDFa2ISBYgyvUh-133" target="HX2W6YqDFa2ISBYgyvUh-113" edge="1">
          <mxGeometry relative="1" as="geometry" />
        </mxCell>
        <mxCell id="HX2W6YqDFa2ISBYgyvUh-133" value="" style="rounded=0;whiteSpace=wrap;html=1;" parent="1" vertex="1">
          <mxGeometry x="1290" y="770" width="12.5" height="20" as="geometry" />
        </mxCell>
        <mxCell id="HX2W6YqDFa2ISBYgyvUh-135" value="" style="endArrow=none;html=1;rounded=0;dashed=1;dashPattern=1 2;" parent="1" source="HX2W6YqDFa2ISBYgyvUh-122" target="HX2W6YqDFa2ISBYgyvUh-133" edge="1">
          <mxGeometry relative="1" as="geometry">
            <mxPoint x="1297.6666666666665" y="740" as="sourcePoint" />
            <mxPoint x="1300" y="880" as="targetPoint" />
          </mxGeometry>
        </mxCell>
        <mxCell id="HX2W6YqDFa2ISBYgyvUh-140" value="add&quot;time slot not found&quot;" style="text;html=1;strokeColor=none;fillColor=none;align=center;verticalAlign=middle;whiteSpace=wrap;rounded=0;" parent="1" vertex="1">
          <mxGeometry x="550" y="760" width="150" height="30" as="geometry" />
        </mxCell>
        <mxCell id="HX2W6YqDFa2ISBYgyvUh-141" value="msg" style="html=1;verticalAlign=bottom;endArrow=open;dashed=1;endSize=8;exitX=-0.3;exitY=0.985;exitDx=0;exitDy=0;exitPerimeter=0;" parent="1" source="HX2W6YqDFa2ISBYgyvUh-38" edge="1">
          <mxGeometry relative="1" as="geometry">
            <mxPoint x="533" y="820" as="sourcePoint" />
            <mxPoint x="270" y="832" as="targetPoint" />
          </mxGeometry>
        </mxCell>
        <mxCell id="HX2W6YqDFa2ISBYgyvUh-142" value="msg" style="html=1;verticalAlign=bottom;endArrow=open;dashed=1;endSize=8;" parent="1" edge="1">
          <mxGeometry relative="1" as="geometry">
            <mxPoint x="250" y="850" as="sourcePoint" />
            <mxPoint x="70" y="850" as="targetPoint" />
          </mxGeometry>
        </mxCell>
      </root>
    </mxGraphModel>
  </diagram>
</mxfile>
